{
  "asset": {
    "version": "2.0",
    "generator": "babylon.js glTF exporter for 3dsmax 2023 v20221031.2"
  },
  "extensionsUsed": [
    "KHR_lights_punctual"
  ],
  "scene": 0,
  "scenes": [
    {
      "nodes": [
        0,
        1,
        2,
        3
      ]
    }
  ],
  "nodes": [
    {
      "mesh": 0,
      "translation": [
        -0.0843653455,
        0.0,
        0.013755477
      ],
      "name": "Teapot001"
    },
    {
      "mesh": 1,
      "translation": [
        0.8182886,
        0.155195177,
        1.11125636
      ],
      "name": "Box001"
    },
    {
      "mesh": 2,
      "name": "Box002"
    },
    {
      "translation": [
        4.8546257,
        2.843431,
        -0.195652232
      ],
      "rotation": [
        -0.281536043,
        0.6486427,
        0.281536043,
        0.648642838
      ],
      "name": "ArnoldLight001",
      "extensions": {
        "KHR_lights_punctual": {
          "light": 0
        }
      }
    }
  ],
  "meshes": [
    {
      "primitives": [
        {
          "attributes": {
            "POSITION": 1,
            "NORMAL": 2,
            "TEXCOORD_0": 3,
            "TEXCOORD_1": 4
          },
          "indices": 0,
          "material": 0
        }
      ],
      "name": "Teapot001"
    },
    {
      "primitives": [
        {
          "attributes": {
            "POSITION": 6,
            "NORMAL": 7,
            "TEXCOORD_0": 8,
            "TEXCOORD_1": 9
          },
          "indices": 5,
          "material": 1
        }
      ],
      "name": "Box001"
    },
    {
      "primitives": [
        {
          "attributes": {
            "POSITION": 11,
            "NORMAL": 12,
            "TEXCOORD_0": 13,
            "TEXCOORD_1": 14
          },
          "indices": 10,
          "material": 2
        }
      ],
      "name": "Box002"
    }
  ],
  "accessors": [
    {
      "bufferView": 0,
      "componentType": 5123,
      "count": 12288,
      "type": "SCALAR",
      "name": "accessorIndices"
    },
    {
      "bufferView": 1,
      "componentType": 5126,
      "count": 3092,
      "max": [
        1.06203938,
        0.974446237,
        0.618696
      ],
      "min": [
        -0.928044,
        0.0,
        -0.618696
      ],
      "type": "VEC3",
      "name": "accessorPositions"
    },
    {
      "bufferView": 1,
      "byteOffset": 37104,
      "componentType": 5126,
      "count": 3092,
      "type": "VEC3",
      "name": "accessorNormals"
    },
    {
      "bufferView": 2,
      "componentType": 5126,
      "count": 3092,
      "type": "VEC2",
      "name": "accessorUVs"
    },
    {
      "bufferView": 2,
      "byteOffset": 24736,
      "componentType": 5126,
      "count": 3092,
      "type": "VEC2",
      "name": "accessorUV2s"
    },
    {
      "bufferView": 0,
      "byteOffset": 24576,
      "componentType": 5123,
      "count": 36,
      "type": "SCALAR",
      "name": "accessorIndices"
    },
    {
      "bufferView": 1,
      "byteOffset": 74208,
      "componentType": 5126,
      "count": 24,
      "max": [
        0.166429177,
        0.417556345,
        0.168114439
      ],
      "min": [
        -0.166429177,
        0.0,
        -0.168114439
      ],
      "type": "VEC3",
      "name": "accessorPositions"
    },
    {
      "bufferView": 1,
      "byteOffset": 74496,
      "componentType": 5126,
      "count": 24,
      "type": "VEC3",
      "name": "accessorNormals"
    },
    {
      "bufferView": 2,
      "byteOffset": 49472,
      "componentType": 5126,
      "count": 24,
      "type": "VEC2",
      "name": "accessorUVs"
    },
    {
      "bufferView": 2,
      "byteOffset": 49664,
      "componentType": 5126,
      "count": 24,
      "type": "VEC2",
      "name": "accessorUV2s"
    },
    {
      "bufferView": 0,
      "byteOffset": 24648,
      "componentType": 5123,
      "count": 36,
      "type": "SCALAR",
      "name": "accessorIndices"
    },
    {
      "bufferView": 1,
      "byteOffset": 74784,
      "componentType": 5126,
      "count": 24,
      "max": [
        1.778,
        0.0,
        1.778
      ],
      "min": [
        -1.778,
        -0.254,
        -1.778
      ],
      "type": "VEC3",
      "name": "accessorPositions"
    },
    {
      "bufferView": 1,
      "byteOffset": 75072,
      "componentType": 5126,
      "count": 24,
      "type": "VEC3",
      "name": "accessorNormals"
    },
    {
      "bufferView": 2,
      "byteOffset": 49856,
      "componentType": 5126,
      "count": 24,
      "type": "VEC2",
      "name": "accessorUVs"
    },
    {
      "bufferView": 2,
      "byteOffset": 50048,
      "componentType": 5126,
      "count": 24,
      "type": "VEC2",
      "name": "accessorUV2s"
    }
  ],
  "bufferViews": [
    {
      "buffer": 0,
      "byteLength": 24720,
      "name": "bufferViewScalar"
    },
    {
      "buffer": 0,
      "byteOffset": 24720,
      "byteLength": 75360,
      "byteStride": 12,
      "name": "bufferViewFloatVec3"
    },
    {
      "buffer": 0,
      "byteOffset": 100080,
      "byteLength": 50240,
      "byteStride": 8,
      "name": "bufferViewFloatVec2"
    }
  ],
  "buffers": [
    {
      "uri": "20_emissive.bin",
      "byteLength": 150320
    }
  ],
  "materials": [
    {
      "pbrMetallicRoughness": {
        "metallicFactor": 0.0
      },
      "emissiveTexture": {
        "index": 0
      },
      "emissiveFactor": [
        1.0,
        1.0,
        1.0
      ],
      "name": "tetera"
    },
    {
      "pbrMetallicRoughness": {
        "baseColorFactor": [
          0.111795463,
          0.271439373,
          0.776978433,
          1.0
        ],
        "metallicFactor": 0.0
      },
      "emissiveTexture": {
        "index": 1
      },
      "emissiveFactor": [
        1.0,
        1.0,
        1.0
      ],
      "name": "cubo"
    },
    {
      "pbrMetallicRoughness": {
        "metallicFactor": 0.0
      },
      "emissiveTexture": {
        "index": 2
      },
      "emissiveFactor": [
        1.0,
        1.0,
        1.0
      ],
      "name": "plano"
    }
  ],
  "textures": [
    {
      "sampler": 0,
      "source": 0,
      "name": "Teapot001_lighting.png"
    },
    {
      "sampler": 0,
      "source": 1,
      "name": "Box001_lighting.png"
    },
    {
      "sampler": 0,
      "source": 2,
      "name": "Box002_lighting.png"
    }
  ],
  "images": [
    {
      "uri": "Teapot001_lighting.png"
    },
    {
      "uri": "Box001_lighting.png"
    },
    {
      "uri": "Box002_lighting.png"
    }
  ],
  "samplers": [
    {
      "magFilter": 9729,
      "minFilter": 9987
    }
  ],
  "extensions": {
    "KHR_lights_punctual": {
      "lights": [
        {
          "intensity": 0.0,
          "type": "point"
        }
      ]
    }
  }
}