{
  "asset": {
    "version": "2.0",
    "generator": "babylon.js glTF exporter for 3dsmax 2023 v20221031.2"
  },
  "scene": 0,
  "scenes": [
    {
      "nodes": [
        0,
        1,
        2,
        3,
        4,
        5,
        6
      ]
    }
  ],
  "nodes": [
    {
      "mesh": 0,
      "translation": [
        -0.0843653455,
        0.0,
        0.013755477
      ],
      "name": "Teapot001"
    },
    {
      "mesh": 1,
      "translation": [
        0.8182886,
        0.155195177,
        1.11125636
      ],
      "name": "Box001"
    },
    {
      "mesh": 2,
      "name": "Box002"
    },
    {
      "translation": [
        -1.25505054,
        -0.155650958,
        0.376341373
      ],
      "rotation": [
        0.502535,
        0.26908955,
        -0.16814588,
        0.8042241
      ],
      "scale": [
        0.99999994,
        1.00000012,
        0.99999994
      ],
      "name": "PhysCamera001.lateral.Target"
    },
    {
      "translation": [
        -5.40875435,
        -0.811248541,
        -0.155887246
      ],
      "rotation": [
        0.444996625,
        0.549525261,
        -0.4449967,
        0.549525261
      ],
      "scale": [
        1.0,
        1.00000024,
        1.0
      ],
      "name": "PhysCamera002.frontal.Target"
    },
    {
      "camera": 0,
      "translation": [
        10.8663883,
        9.668001,
        16.46203
      ],
      "rotation": [
        -0.213326454,
        0.309172153,
        0.07137802,
        0.924018145
      ],
      "scale": [
        0.9999999,
        0.99999994,
        0.999999762
      ],
      "name": "PhysCamera001.lateral"
    },
    {
      "camera": 1,
      "translation": [
        10.385705,
        2.545971,
        -0.155890614
      ],
      "rotation": [
        -0.07391289,
        0.703233242,
        0.07391292,
        0.7032331
      ],
      "scale": [
        1.0,
        1.00000012,
        1.0
      ],
      "name": "PhysCamera002.frontal"
    }
  ],
  "cameras": [
    {
      "perspective": {
        "yfov": 0.457826138,
        "zfar": 10000.0,
        "znear": 0.1
      },
      "type": "perspective",
      "name": "PhysCamera001.lateral"
    },
    {
      "perspective": {
        "yfov": 0.4578263,
        "zfar": 10000.0,
        "znear": 0.1
      },
      "type": "perspective",
      "name": "PhysCamera002.frontal"
    }
  ],
  "meshes": [
    {
      "primitives": [
        {
          "attributes": {
            "POSITION": 1,
            "NORMAL": 2,
            "TEXCOORD_0": 3,
            "TEXCOORD_1": 4
          },
          "indices": 0,
          "material": 0
        }
      ],
      "name": "Teapot001"
    },
    {
      "primitives": [
        {
          "attributes": {
            "POSITION": 6,
            "NORMAL": 7,
            "TEXCOORD_0": 8,
            "TEXCOORD_1": 9
          },
          "indices": 5,
          "material": 1
        }
      ],
      "name": "Box001"
    },
    {
      "primitives": [
        {
          "attributes": {
            "POSITION": 11,
            "NORMAL": 12,
            "TEXCOORD_0": 13,
            "TEXCOORD_1": 14
          },
          "indices": 10,
          "material": 2
        }
      ],
      "name": "Box002"
    }
  ],
  "accessors": [
    {
      "bufferView": 0,
      "componentType": 5123,
      "count": 12288,
      "type": "SCALAR",
      "name": "accessorIndices"
    },
    {
      "bufferView": 1,
      "componentType": 5126,
      "count": 3092,
      "max": [
        1.06203938,
        0.974446237,
        0.618696
      ],
      "min": [
        -0.928044,
        0.0,
        -0.618696
      ],
      "type": "VEC3",
      "name": "accessorPositions"
    },
    {
      "bufferView": 1,
      "byteOffset": 37104,
      "componentType": 5126,
      "count": 3092,
      "type": "VEC3",
      "name": "accessorNormals"
    },
    {
      "bufferView": 2,
      "componentType": 5126,
      "count": 3092,
      "type": "VEC2",
      "name": "accessorUVs"
    },
    {
      "bufferView": 2,
      "byteOffset": 24736,
      "componentType": 5126,
      "count": 3092,
      "type": "VEC2",
      "name": "accessorUV2s"
    },
    {
      "bufferView": 0,
      "byteOffset": 24576,
      "componentType": 5123,
      "count": 36,
      "type": "SCALAR",
      "name": "accessorIndices"
    },
    {
      "bufferView": 1,
      "byteOffset": 74208,
      "componentType": 5126,
      "count": 24,
      "max": [
        0.166429177,
        0.417556345,
        0.168114439
      ],
      "min": [
        -0.166429177,
        0.0,
        -0.168114439
      ],
      "type": "VEC3",
      "name": "accessorPositions"
    },
    {
      "bufferView": 1,
      "byteOffset": 74496,
      "componentType": 5126,
      "count": 24,
      "type": "VEC3",
      "name": "accessorNormals"
    },
    {
      "bufferView": 2,
      "byteOffset": 49472,
      "componentType": 5126,
      "count": 24,
      "type": "VEC2",
      "name": "accessorUVs"
    },
    {
      "bufferView": 2,
      "byteOffset": 49664,
      "componentType": 5126,
      "count": 24,
      "type": "VEC2",
      "name": "accessorUV2s"
    },
    {
      "bufferView": 0,
      "byteOffset": 24648,
      "componentType": 5123,
      "count": 36,
      "type": "SCALAR",
      "name": "accessorIndices"
    },
    {
      "bufferView": 1,
      "byteOffset": 74784,
      "componentType": 5126,
      "count": 24,
      "max": [
        1.778,
        0.0,
        1.778
      ],
      "min": [
        -1.778,
        -0.254,
        -1.778
      ],
      "type": "VEC3",
      "name": "accessorPositions"
    },
    {
      "bufferView": 1,
      "byteOffset": 75072,
      "componentType": 5126,
      "count": 24,
      "type": "VEC3",
      "name": "accessorNormals"
    },
    {
      "bufferView": 2,
      "byteOffset": 49856,
      "componentType": 5126,
      "count": 24,
      "type": "VEC2",
      "name": "accessorUVs"
    },
    {
      "bufferView": 2,
      "byteOffset": 50048,
      "componentType": 5126,
      "count": 24,
      "type": "VEC2",
      "name": "accessorUV2s"
    }
  ],
  "bufferViews": [
    {
      "buffer": 0,
      "byteLength": 24720,
      "name": "bufferViewScalar"
    },
    {
      "buffer": 0,
      "byteOffset": 24720,
      "byteLength": 75360,
      "byteStride": 12,
      "name": "bufferViewFloatVec3"
    },
    {
      "buffer": 0,
      "byteOffset": 100080,
      "byteLength": 50240,
      "byteStride": 8,
      "name": "bufferViewFloatVec2"
    }
  ],
  "buffers": [
    {
      "uri": "20_emissive.bin",
      "byteLength": 150320
    }
  ],
  "materials": [
    {
      "pbrMetallicRoughness": {
        "metallicFactor": 0.0
      },
      "emissiveTexture": {
        "index": 0
      },
      "emissiveFactor": [
        1.0,
        1.0,
        1.0
      ],
      "name": "tetera"
    },
    {
      "pbrMetallicRoughness": {
        "baseColorFactor": [
          0.111795463,
          0.271439373,
          0.776978433,
          1.0
        ],
        "metallicFactor": 0.0
      },
      "emissiveTexture": {
        "index": 1
      },
      "emissiveFactor": [
        1.0,
        1.0,
        1.0
      ],
      "name": "cubo"
    },
    {
      "pbrMetallicRoughness": {
        "metallicFactor": 0.0
      },
      "emissiveTexture": {
        "index": 2
      },
      "emissiveFactor": [
        1.0,
        1.0,
        1.0
      ],
      "name": "plano"
    }
  ],
  "textures": [
    {
      "sampler": 0,
      "source": 0,
      "name": "Teapot001_lighting.png"
    },
    {
      "sampler": 0,
      "source": 1,
      "name": "Box001_lighting.png"
    },
    {
      "sampler": 0,
      "source": 2,
      "name": "Box002_lighting.png"
    }
  ],
  "images": [
    {
      "uri": "Teapot001_lighting.png"
    },
    {
      "uri": "Box001_lighting.png"
    },
    {
      "uri": "Box002_lighting.png"
    }
  ],
  "samplers": [
    {
      "magFilter": 9729,
      "minFilter": 9987
    }
  ]
}