{
  "asset": {
    "version": "2.0",
    "generator": "babylon.js glTF exporter for 3dsmax 2023 v20221031.2"
  },
  "scene": 0,
  "scenes": [
    {
      "nodes": [
        0,
        1,
        2,
        3,
        4,
        5,
        6,
        7,
        8,
        9,
        10
      ]
    }
  ],
  "nodes": [
    {
      "mesh": 0,
      "translation": [
        0.0,
        0.0,
        0.292999983
      ],
      "name": "plano01"
    },
    {
      "mesh": 1,
      "translation": [
        0.0,
        0.0,
        0.292999983
      ],
      "name": "plano04"
    },
    {
      "mesh": 2,
      "translation": [
        0.0,
        0.0,
        0.292999983
      ],
      "name": "plano03"
    },
    {
      "mesh": 3,
      "translation": [
        0.0,
        0.0,
        0.292999983
      ],
      "name": "plano02"
    },
    {
      "mesh": 4,
      "translation": [
        -0.00103133917,
        0.0,
        3.86663757E-10
      ],
      "rotation": [
        0.7071068,
        0.0,
        0.0,
        0.7071067
      ],
      "name": "contemporary_desk",
      "extras": {
        "paramrenderwidth": 2048,
        "paramrenderheight": 2048,
        "paramfacecolor": [
          0.7058824,
          0.20784314,
          0.09019608
        ],
        "paramedgecolor": [
          1.0,
          0.7764706,
          0.0
        ],
        "paramedgewidth": 1
      }
    },
    {
      "mesh": 5,
      "translation": [
        0.0302366614,
        0.0,
        0.530900955
      ],
      "rotation": [
        -0.000203178715,
        -0.707106769,
        0.7071068,
        -0.000203178715
      ],
      "name": "contemporary_chair",
      "extras": {
        "paramrenderwidth": 2048,
        "paramrenderheight": 2048,
        "paramfacecolor": [
          0.7058824,
          0.20784314,
          0.09019608
        ],
        "paramedgecolor": [
          1.0,
          0.7764706,
          0.0
        ],
        "paramedgewidth": 1
      }
    },
    {
      "mesh": 6,
      "translation": [
        -0.195172608,
        0.0,
        -0.133493483
      ],
      "rotation": [
        0.6372019,
        -0.306551248,
        0.306551278,
        0.637201965
      ],
      "name": "contemporary_desk_lamp",
      "extras": {
        "paramrenderwidth": 2048,
        "paramrenderheight": 2048,
        "paramfacecolor": [
          0.7058824,
          0.20784314,
          0.09019608
        ],
        "paramedgecolor": [
          1.0,
          0.7764706,
          0.0
        ],
        "paramedgewidth": 1
      }
    },
    {
      "mesh": 7,
      "translation": [
        -0.008439932,
        0.0,
        0.08580269
      ],
      "rotation": [
        0.7071068,
        0.0,
        0.0,
        0.7071067
      ],
      "name": "contemporary_book",
      "extras": {
        "paramrenderwidth": 2048,
        "paramrenderheight": 2048,
        "paramfacecolor": [
          0.7058824,
          0.20784314,
          0.09019608
        ],
        "paramedgecolor": [
          1.0,
          0.7764706,
          0.0
        ],
        "paramedgewidth": 1
      }
    },
    {
      "translation": [
        8.972665,
        -3.72635269,
        -0.5198778
      ],
      "name": "VRaySun002.Target"
    },
    {
      "translation": [
        -9.750713,
        0.0,
        1.5305562
      ],
      "rotation": [
        -0.707106769,
        0.0,
        0.0,
        0.707106769
      ],
      "name": "VRayDome"
    },
    {
      "translation": [
        8.972665,
        6.49971962,
        15.2747231
      ],
      "rotation": [
        -0.28335163,
        0.0,
        0.0,
        0.9590161
      ],
      "name": "VRaySun002"
    }
  ],
  "meshes": [
    {
      "primitives": [
        {
          "attributes": {
            "POSITION": 1,
            "NORMAL": 2,
            "TEXCOORD_0": 3,
            "TEXCOORD_1": 4
          },
          "indices": 0,
          "material": 0
        }
      ],
      "name": "plano01"
    },
    {
      "primitives": [
        {
          "attributes": {
            "POSITION": 6,
            "NORMAL": 7,
            "TEXCOORD_0": 8,
            "TEXCOORD_1": 9
          },
          "indices": 5,
          "material": 1
        }
      ],
      "name": "plano04"
    },
    {
      "primitives": [
        {
          "attributes": {
            "POSITION": 11,
            "NORMAL": 12,
            "TEXCOORD_0": 13,
            "TEXCOORD_1": 14
          },
          "indices": 10,
          "material": 2
        }
      ],
      "name": "plano03"
    },
    {
      "primitives": [
        {
          "attributes": {
            "POSITION": 16,
            "NORMAL": 17,
            "TEXCOORD_0": 18,
            "TEXCOORD_1": 19
          },
          "indices": 15,
          "material": 3
        }
      ],
      "name": "plano02"
    },
    {
      "primitives": [
        {
          "attributes": {
            "POSITION": 21,
            "NORMAL": 22,
            "COLOR_0": 23,
            "TEXCOORD_0": 24,
            "TEXCOORD_1": 25
          },
          "indices": 20,
          "material": 4
        }
      ],
      "name": "contemporary_desk"
    },
    {
      "primitives": [
        {
          "attributes": {
            "POSITION": 27,
            "NORMAL": 28,
            "TEXCOORD_0": 29,
            "TEXCOORD_1": 30
          },
          "indices": 26,
          "material": 5
        }
      ],
      "name": "contemporary_chair"
    },
    {
      "primitives": [
        {
          "attributes": {
            "POSITION": 32,
            "NORMAL": 33,
            "TEXCOORD_0": 34,
            "TEXCOORD_1": 35
          },
          "indices": 31,
          "material": 6
        },
        {
          "attributes": {
            "POSITION": 37,
            "NORMAL": 38,
            "TEXCOORD_0": 39,
            "TEXCOORD_1": 40
          },
          "indices": 36,
          "material": 7
        }
      ],
      "name": "contemporary_desk_lamp"
    },
    {
      "primitives": [
        {
          "attributes": {
            "POSITION": 42,
            "NORMAL": 43,
            "TEXCOORD_0": 44,
            "TEXCOORD_1": 45
          },
          "indices": 41,
          "material": 8
        },
        {
          "attributes": {
            "POSITION": 47,
            "NORMAL": 48,
            "TEXCOORD_0": 49,
            "TEXCOORD_1": 50
          },
          "indices": 46,
          "material": 9
        }
      ],
      "name": "contemporary_book"
    }
  ],
  "accessors": [
    {
      "bufferView": 0,
      "componentType": 5123,
      "count": 6,
      "type": "SCALAR",
      "name": "accessorIndices"
    },
    {
      "bufferView": 1,
      "componentType": 5126,
      "count": 4,
      "max": [
        1.0,
        0.0,
        0.6
      ],
      "min": [
        -1.0,
        0.0,
        -0.590000033
      ],
      "type": "VEC3",
      "name": "accessorPositions"
    },
    {
      "bufferView": 1,
      "byteOffset": 48,
      "componentType": 5126,
      "count": 4,
      "type": "VEC3",
      "name": "accessorNormals"
    },
    {
      "bufferView": 2,
      "componentType": 5126,
      "count": 4,
      "type": "VEC2",
      "name": "accessorUVs"
    },
    {
      "bufferView": 2,
      "byteOffset": 32,
      "componentType": 5126,
      "count": 4,
      "type": "VEC2",
      "name": "accessorUV2s"
    },
    {
      "bufferView": 0,
      "byteOffset": 12,
      "componentType": 5123,
      "count": 6,
      "type": "SCALAR",
      "name": "accessorIndices"
    },
    {
      "bufferView": 1,
      "byteOffset": 96,
      "componentType": 5126,
      "count": 4,
      "max": [
        1.0,
        1.28,
        -0.6
      ],
      "min": [
        -1.0,
        0.07999998,
        -0.6
      ],
      "type": "VEC3",
      "name": "accessorPositions"
    },
    {
      "bufferView": 1,
      "byteOffset": 144,
      "componentType": 5126,
      "count": 4,
      "type": "VEC3",
      "name": "accessorNormals"
    },
    {
      "bufferView": 2,
      "byteOffset": 64,
      "componentType": 5126,
      "count": 4,
      "type": "VEC2",
      "name": "accessorUVs"
    },
    {
      "bufferView": 2,
      "byteOffset": 96,
      "componentType": 5126,
      "count": 4,
      "type": "VEC2",
      "name": "accessorUV2s"
    },
    {
      "bufferView": 0,
      "byteOffset": 24,
      "componentType": 5123,
      "count": 6,
      "type": "SCALAR",
      "name": "accessorIndices"
    },
    {
      "bufferView": 1,
      "byteOffset": 192,
      "componentType": 5126,
      "count": 6,
      "max": [
        1.0,
        0.08,
        -0.590000033
      ],
      "min": [
        -1.0,
        0.07999997,
        -0.6
      ],
      "type": "VEC3",
      "name": "accessorPositions"
    },
    {
      "bufferView": 1,
      "byteOffset": 264,
      "componentType": 5126,
      "count": 6,
      "type": "VEC3",
      "name": "accessorNormals"
    },
    {
      "bufferView": 2,
      "byteOffset": 128,
      "componentType": 5126,
      "count": 6,
      "type": "VEC2",
      "name": "accessorUVs"
    },
    {
      "bufferView": 2,
      "byteOffset": 176,
      "componentType": 5126,
      "count": 6,
      "type": "VEC2",
      "name": "accessorUV2s"
    },
    {
      "bufferView": 0,
      "byteOffset": 36,
      "componentType": 5123,
      "count": 6,
      "type": "SCALAR",
      "name": "accessorIndices"
    },
    {
      "bufferView": 1,
      "byteOffset": 336,
      "componentType": 5126,
      "count": 4,
      "max": [
        1.0,
        0.07999997,
        -0.590000033
      ],
      "min": [
        -1.0,
        0.0,
        -0.590000033
      ],
      "type": "VEC3",
      "name": "accessorPositions"
    },
    {
      "bufferView": 1,
      "byteOffset": 384,
      "componentType": 5126,
      "count": 4,
      "type": "VEC3",
      "name": "accessorNormals"
    },
    {
      "bufferView": 2,
      "byteOffset": 224,
      "componentType": 5126,
      "count": 4,
      "type": "VEC2",
      "name": "accessorUVs"
    },
    {
      "bufferView": 2,
      "byteOffset": 256,
      "componentType": 5126,
      "count": 4,
      "type": "VEC2",
      "name": "accessorUV2s"
    },
    {
      "bufferView": 0,
      "byteOffset": 48,
      "componentType": 5123,
      "count": 2304,
      "type": "SCALAR",
      "name": "accessorIndices"
    },
    {
      "bufferView": 1,
      "byteOffset": 432,
      "componentType": 5126,
      "count": 1128,
      "max": [
        0.716380239,
        0.299999982,
        -0.0006380677
      ],
      "min": [
        -0.716380239,
        -0.300000042,
        -0.9163354
      ],
      "type": "VEC3",
      "name": "accessorPositions"
    },
    {
      "bufferView": 1,
      "byteOffset": 13968,
      "componentType": 5126,
      "count": 1128,
      "type": "VEC3",
      "name": "accessorNormals"
    },
    {
      "bufferView": 3,
      "componentType": 5126,
      "count": 1128,
      "type": "VEC4",
      "name": "accessorColors"
    },
    {
      "bufferView": 2,
      "byteOffset": 288,
      "componentType": 5126,
      "count": 1128,
      "type": "VEC2",
      "name": "accessorUVs"
    },
    {
      "bufferView": 2,
      "byteOffset": 9312,
      "componentType": 5126,
      "count": 1128,
      "type": "VEC2",
      "name": "accessorUV2s"
    },
    {
      "bufferView": 0,
      "byteOffset": 4656,
      "componentType": 5123,
      "count": 2766,
      "type": "SCALAR",
      "name": "accessorIndices"
    },
    {
      "bufferView": 1,
      "byteOffset": 27504,
      "componentType": 5126,
      "count": 804,
      "max": [
        0.3175534,
        0.338567674,
        0.0
      ],
      "min": [
        -0.317587972,
        -0.334176481,
        -0.88207674
      ],
      "type": "VEC3",
      "name": "accessorPositions"
    },
    {
      "bufferView": 1,
      "byteOffset": 37152,
      "componentType": 5126,
      "count": 804,
      "type": "VEC3",
      "name": "accessorNormals"
    },
    {
      "bufferView": 2,
      "byteOffset": 18336,
      "componentType": 5126,
      "count": 804,
      "type": "VEC2",
      "name": "accessorUVs"
    },
    {
      "bufferView": 2,
      "byteOffset": 24768,
      "componentType": 5126,
      "count": 804,
      "type": "VEC2",
      "name": "accessorUV2s"
    },
    {
      "bufferView": 0,
      "byteOffset": 10188,
      "componentType": 5123,
      "count": 2307,
      "type": "SCALAR",
      "name": "accessorIndices"
    },
    {
      "bufferView": 1,
      "byteOffset": 46800,
      "componentType": 5126,
      "count": 824,
      "max": [
        0.147599414,
        0.0753461346,
        -0.808845758
      ],
      "min": [
        -0.147599414,
        -0.075346224,
        -1.15540946
      ],
      "type": "VEC3",
      "name": "accessorPositions"
    },
    {
      "bufferView": 1,
      "byteOffset": 56688,
      "componentType": 5126,
      "count": 824,
      "type": "VEC3",
      "name": "accessorNormals"
    },
    {
      "bufferView": 2,
      "byteOffset": 31200,
      "componentType": 5126,
      "count": 824,
      "type": "VEC2",
      "name": "accessorUVs"
    },
    {
      "bufferView": 2,
      "byteOffset": 37792,
      "componentType": 5126,
      "count": 824,
      "type": "VEC2",
      "name": "accessorUV2s"
    },
    {
      "bufferView": 0,
      "byteOffset": 14804,
      "componentType": 5123,
      "count": 189,
      "type": "SCALAR",
      "name": "accessorIndices"
    },
    {
      "bufferView": 1,
      "byteOffset": 66576,
      "componentType": 5126,
      "count": 66,
      "max": [
        0.144481346,
        0.07189533,
        -1.048917
      ],
      "min": [
        0.00361614674,
        -0.07189541,
        -1.12352967
      ],
      "type": "VEC3",
      "name": "accessorPositions"
    },
    {
      "bufferView": 1,
      "byteOffset": 67368,
      "componentType": 5126,
      "count": 66,
      "type": "VEC3",
      "name": "accessorNormals"
    },
    {
      "bufferView": 2,
      "byteOffset": 44384,
      "componentType": 5126,
      "count": 66,
      "type": "VEC2",
      "name": "accessorUVs"
    },
    {
      "bufferView": 2,
      "byteOffset": 44912,
      "componentType": 5126,
      "count": 66,
      "type": "VEC2",
      "name": "accessorUV2s"
    },
    {
      "bufferView": 0,
      "byteOffset": 15184,
      "componentType": 5123,
      "count": 144,
      "type": "SCALAR",
      "name": "accessorIndices"
    },
    {
      "bufferView": 1,
      "byteOffset": 68160,
      "componentType": 5126,
      "count": 84,
      "max": [
        0.136831388,
        0.125969678,
        -0.808845758
      ],
      "min": [
        -0.0684109,
        -0.125969738,
        -0.8315548
      ],
      "type": "VEC3",
      "name": "accessorPositions"
    },
    {
      "bufferView": 1,
      "byteOffset": 69168,
      "componentType": 5126,
      "count": 84,
      "type": "VEC3",
      "name": "accessorNormals"
    },
    {
      "bufferView": 2,
      "byteOffset": 45440,
      "componentType": 5126,
      "count": 84,
      "type": "VEC2",
      "name": "accessorUVs"
    },
    {
      "bufferView": 2,
      "byteOffset": 46112,
      "componentType": 5126,
      "count": 84,
      "type": "VEC2",
      "name": "accessorUV2s"
    },
    {
      "bufferView": 0,
      "byteOffset": 15472,
      "componentType": 5123,
      "count": 42,
      "type": "SCALAR",
      "name": "accessorIndices"
    },
    {
      "bufferView": 1,
      "byteOffset": 70176,
      "componentType": 5126,
      "count": 24,
      "max": [
        -0.100893714,
        0.0420593433,
        -0.808845758
      ],
      "min": [
        -0.136831388,
        -0.08410187,
        -0.814523041
      ],
      "type": "VEC3",
      "name": "accessorPositions"
    },
    {
      "bufferView": 1,
      "byteOffset": 70464,
      "componentType": 5126,
      "count": 24,
      "type": "VEC3",
      "name": "accessorNormals"
    },
    {
      "bufferView": 2,
      "byteOffset": 46784,
      "componentType": 5126,
      "count": 24,
      "type": "VEC2",
      "name": "accessorUVs"
    },
    {
      "bufferView": 2,
      "byteOffset": 46976,
      "componentType": 5126,
      "count": 24,
      "type": "VEC2",
      "name": "accessorUV2s"
    }
  ],
  "bufferViews": [
    {
      "buffer": 0,
      "byteLength": 15556,
      "name": "bufferViewScalar"
    },
    {
      "buffer": 0,
      "byteOffset": 15556,
      "byteLength": 70752,
      "byteStride": 12,
      "name": "bufferViewFloatVec3"
    },
    {
      "buffer": 0,
      "byteOffset": 86308,
      "byteLength": 47168,
      "byteStride": 8,
      "name": "bufferViewFloatVec2"
    },
    {
      "buffer": 0,
      "byteOffset": 133476,
      "byteLength": 18048,
      "byteStride": 16,
      "name": "bufferViewFloatVec4"
    }
  ],
  "buffers": [
    {
      "uri": "test.bin",
      "byteLength": 151524
    }
  ],
  "materials": [
    {
      "pbrMetallicRoughness": {
        "baseColorFactor": [
          0.8,
          0.8,
          0.8,
          1.0
        ],
        "metallicFactor": 0.0,
        "roughnessFactor": 0.0
      },
      "doubleSided": true,
      "name": "plane04",
      "extras": {
        "babylonSeparateCullingPass": false
      }
    },
    {
      "pbrMetallicRoughness": {
        "baseColorFactor": [
          0.8,
          0.8,
          0.8,
          1.0
        ],
        "metallicFactor": 0.0,
        "roughnessFactor": 0.0
      },
      "doubleSided": true,
      "name": "plane01",
      "extras": {
        "babylonSeparateCullingPass": false
      }
    },
    {
      "pbrMetallicRoughness": {
        "metallicFactor": 0.0
      },
      "doubleSided": true,
      "name": "plane02",
      "extras": {
        "babylonSeparateCullingPass": false
      }
    },
    {
      "pbrMetallicRoughness": {
        "baseColorFactor": [
          0.8,
          0.8,
          0.8,
          1.0
        ],
        "metallicFactor": 0.0,
        "roughnessFactor": 0.0
      },
      "doubleSided": true,
      "name": "plane03",
      "extras": {
        "babylonSeparateCullingPass": false
      }
    },
    {
      "pbrMetallicRoughness": {
        "baseColorTexture": {
          "index": 1
        },
        "metallicFactor": 0.0,
        "metallicRoughnessTexture": {
          "index": 2
        }
      },
      "normalTexture": {
        "index": 0
      },
      "doubleSided": true,
      "name": "Material #2",
      "extras": {
        "babylonSeparateCullingPass": false
      }
    },
    {
      "pbrMetallicRoughness": {
        "baseColorTexture": {
          "index": 4
        },
        "metallicFactor": 0.0,
        "metallicRoughnessTexture": {
          "index": 5
        }
      },
      "normalTexture": {
        "index": 3
      },
      "doubleSided": true,
      "name": "Material #3",
      "extras": {
        "babylonSeparateCullingPass": false
      }
    },
    {
      "pbrMetallicRoughness": {
        "baseColorFactor": [
          0.02745098,
          0.02745098,
          0.02745098,
          1.0
        ],
        "metallicFactor": 0.0,
        "metallicRoughnessTexture": {
          "index": 6
        }
      },
      "doubleSided": true,
      "name": "lampara_antracita"
    },
    {
      "pbrMetallicRoughness": {
        "baseColorFactor": [
          0.8627451,
          0.8627451,
          0.8627451,
          1.0
        ],
        "metallicFactor": 0.0,
        "roughnessFactor": 0.0
      },
      "doubleSided": true,
      "name": "lampara_luz"
    },
    {
      "pbrMetallicRoughness": {
        "baseColorTexture": {
          "index": 7
        },
        "metallicFactor": 0.0,
        "roughnessFactor": 0.5
      },
      "doubleSided": true,
      "name": "book"
    },
    {
      "pbrMetallicRoughness": {
        "baseColorFactor": [
          0.9647059,
          0.572549045,
          0.0196078438,
          1.0
        ],
        "metallicFactor": 0.0,
        "roughnessFactor": 0.5
      },
      "doubleSided": true,
      "name": "pencil"
    }
  ],
  "textures": [
    {
      "sampler": 0,
      "source": 0,
      "name": "contemporary_desk_VRayBumpNormalsMap.png"
    },
    {
      "sampler": 0,
      "source": 1,
      "name": "contemporary_desk_VRayDiffuseFilterMap.png"
    },
    {
      "sampler": 0,
      "source": 2,
      "name": "contemporary_desk_VRayRoughnessMap0.png"
    },
    {
      "sampler": 0,
      "source": 3,
      "name": "contemporary_chair_VRayBumpNormalsMap.png"
    },
    {
      "sampler": 0,
      "source": 4,
      "name": "contemporary_chair_VRayDiffuseFilterMap.png"
    },
    {
      "sampler": 0,
      "source": 5,
      "name": "contemporary_chair_VRayRoughnessMap0.png"
    },
    {
      "sampler": 0,
      "source": 6,
      "name": "dr_80.png"
    },
    {
      "sampler": 0,
      "source": 7,
      "name": "libro_Base_color.jpg"
    }
  ],
  "images": [
    {
      "uri": "contemporary_desk_VRayBumpNormalsMap.png"
    },
    {
      "uri": "contemporary_desk_VRayDiffuseFilterMap.png"
    },
    {
      "uri": "contemporary_desk_VRayRoughnessMap0.png"
    },
    {
      "uri": "contemporary_chair_VRayBumpNormalsMap.png"
    },
    {
      "uri": "contemporary_chair_VRayDiffuseFilterMap.png"
    },
    {
      "uri": "contemporary_chair_VRayRoughnessMap0.png"
    },
    {
      "uri": "dr_80.png"
    },
    {
      "uri": "libro_Base_color.jpg"
    }
  ],
  "samplers": [
    {
      "magFilter": 9729,
      "minFilter": 9987
    }
  ]
}